<?xml version="1.0" encoding="UTF-8" standalone="no"?>
<!-- Created with Inkscape (http://www.inkscape.org/) -->

<svg
   width="48"
   height="48"
   viewBox="0 0 12.7 12.7"
   version="1.1"
   id="svg4290"
   inkscape:version="1.1.1 (3bf5ae0d25, 2021-09-20)"
   sodipodi:docname="arinc615a_information_operation_icon.svg"
   xmlns:inkscape="http://www.inkscape.org/namespaces/inkscape"
   xmlns:sodipodi="http://sodipodi.sourceforge.net/DTD/sodipodi-0.dtd"
   xmlns="http://www.w3.org/2000/svg"
   xmlns:svg="http://www.w3.org/2000/svg">
  <sodipodi:namedview
     id="namedview4292"
     pagecolor="#ffffff"
     bordercolor="#666666"
     borderopacity="1.0"
     inkscape:pageshadow="2"
     inkscape:pageopacity="0.0"
     inkscape:pagecheckerboard="0"
     inkscape:document-units="px"
     showgrid="true"
     units="px"
     fit-margin-top="0"
     fit-margin-left="0"
     fit-margin-right="0"
     fit-margin-bottom="0"
     inkscape:zoom="11.608336"
     inkscape:cx="24.034452"
     inkscape:cy="24.034452"
     inkscape:window-width="1920"
     inkscape:window-height="1003"
     inkscape:window-x="0"
     inkscape:window-y="0"
     inkscape:window-maximized="1"
     inkscape:current-layer="layer1"
     width="48px"
     showguides="true"
     inkscape:guide-bbox="true">
    <inkscape:grid
       type="xygrid"
       id="grid12"
       empspacing="8" />
  </sodipodi:namedview>
  <defs
     id="defs4287" />
  <g
     inkscape:label="Ebene 1"
     inkscape:groupmode="layer"
     id="layer1"
     transform="translate(-102.5981,-83.173336)">
    <g
       transform="matrix(1.3469702,0,0,1.3469702,-295.44362,-533.14333)"
       style="font-style:normal;font-variant:normal;font-weight:normal;font-stretch:normal;font-size:10px;line-height:125%;font-family:FontAwesome;-inkscape-font-specification:FontAwesome;letter-spacing:0px;word-spacing:0px;fill:#000000;fill-opacity:1;stroke:none;stroke-width:0.48px;stroke-linecap:butt;stroke-linejoin:miter;stroke-opacity:1"
       id="g5284">
      <path
         d="m 302.00893,465.12919 c 0,-0.19532 -0.16183,-0.35715 -0.35714,-0.35715 h -0.35715 v -3.21428 c 0,-0.19532 -0.16183,-0.35715 -0.35714,-0.35715 h -2.14286 c -0.19531,0 -0.35714,0.16183 -0.35714,0.35715 v 0.71428 c 0,0.19531 0.16183,0.35715 0.35714,0.35715 h 0.35715 v 2.14285 h -0.35715 c -0.19531,0 -0.35714,0.16183 -0.35714,0.35715 v 0.71428 c 0,0.19531 0.16183,0.35714 0.35714,0.35714 h 2.85715 c 0.19531,0 0.35714,-0.16183 0.35714,-0.35714 z m -0.71429,-6.42858 c 0,-0.19531 -0.16183,-0.35714 -0.35714,-0.35714 h -1.42857 c -0.19531,0 -0.35714,0.16183 -0.35714,0.35714 v 1.07143 c 0,0.19531 0.16183,0.35715 0.35714,0.35715 h 1.42857 c 0.19531,0 0.35714,-0.16184 0.35714,-0.35715 z"
         id="path5282"
         inkscape:connector-curvature="0"
         style="stroke-width:0.48px" />
    </g>
  </g>
</svg>
