<?xml version="1.0" encoding="UTF-8" standalone="no"?>
<svg
   width="96"
   height="96"
   viewBox="0 0 96 96"
   fill="none"
   version="1.1"
   id="svg1"
   sodipodi:docname="ProjectLogo.svg"
   inkscape:version="1.3.2 (091e20ef0f, 2023-11-25)"
   inkscape:export-filename="ProjectLogo.png"
   inkscape:export-xdpi="96"
   inkscape:export-ydpi="96"
   xmlns:inkscape="http://www.inkscape.org/namespaces/inkscape"
   xmlns:sodipodi="http://sodipodi.sourceforge.net/DTD/sodipodi-0.dtd"
   xmlns="http://www.w3.org/2000/svg"
   xmlns:svg="http://www.w3.org/2000/svg">
  <defs
     id="defs1" />
  <sodipodi:namedview
     id="namedview1"
     pagecolor="#ffffff"
     bordercolor="#000000"
     borderopacity="0.25"
     inkscape:showpageshadow="2"
     inkscape:pageopacity="0.0"
     inkscape:pagecheckerboard="0"
     inkscape:deskcolor="#d1d1d1"
     inkscape:zoom="5.13125"
     inkscape:cx="112.05847"
     inkscape:cy="80"
     inkscape:window-width="1920"
     inkscape:window-height="1017"
     inkscape:window-x="-8"
     inkscape:window-y="-8"
     inkscape:window-maximized="1"
     inkscape:current-layer="svg1" />
  <path
     fill-rule="evenodd"
     clip-rule="evenodd"
     d="M 2,25.65714 12.514287,15.142857 H 94 V 70.342854 L 83.485713,80.857144 H 2 Z m 43.792,49.673427 6.091713,-2.838851 h -0.0066 l -4.96802,-7.984288 c 2.286858,-1.53771 3.936287,-3.76543 4.941714,-6.683148 0.998857,-2.91771 1.504857,-6.742279 1.504857,-11.473712 0,-7.175995 -1.222284,-12.492286 -3.666857,-15.94228 -2.44457,-3.450006 -6.702856,-5.178285 -12.774856,-5.178285 -6.072,0 -10.336859,1.73485 -12.801144,5.204568 -2.464285,3.476282 -3.693142,8.786002 -3.693142,15.942284 0,7.156291 1.209142,12.393716 3.633999,15.705713 2.431429,3.311999 6.716,4.968 12.866859,4.968 1.655999,0 2.85857,-0.118282 3.607713,-0.354848 z M 62.227143,64.743994 c 1.241999,1.537723 3.541998,2.306574 6.893427,2.306574 1.38,0 3.390859,-0.256279 6.032572,-0.768851 l -0.295713,-5.145427 -4.849716,0.177426 c -1.458856,0 -2.365713,-0.394292 -2.720572,-1.18286 -0.354854,-0.788568 -0.532283,-2.385431 -0.532283,-4.790574 V 42.328859 h 8.161712 v -5.50029 h -8.161712 v -8.575718 h -6.387429 v 8.575718 h -3.785142 v 5.50029 h 3.785142 v 13.721145 c 0,4.258279 0.617713,7.156281 1.859714,8.69399 z M 29.291224,34.640249 c 1.38,-2.444573 3.923142,-3.66686 7.629427,-3.66686 3.706287,0 6.242777,1.222287 7.603062,3.66686 1.353716,2.444573 2.037145,6.367713 2.037145,11.769421 0,5.401719 -0.657145,9.23286 -1.978,11.500049 -1.32743,2.267136 -3.877063,3.397426 -7.662207,3.397426 -3.785142,0 -6.348,-1.150002 -7.688571,-3.456577 -1.340571,-2.306608 -2.010856,-6.137751 -2.010856,-11.500041 0,-5.362279 0.69,-9.265705 2.07,-11.710278 z"
     fill="#2cde85"
     id="path1"
     style="stroke-width:0.410714" />
</svg>
